<mxfile host="app.diagrams.net" modified="2024-06-13T18:49:29.574Z" agent="Mozilla/5.0 (Windows NT 10.0; Win64; x64) AppleWebKit/537.36 (KHTML, like Gecko) Chrome/124.0.0.0 Safari/537.36" etag="iiIkS2Xt422O6scW_K2P" version="24.5.4" type="device">
  <diagram id="R2lEEEUBdFMjLlhIrx00" name="Page-1">
    <mxGraphModel dx="1399" dy="744" grid="1" gridSize="10" guides="1" tooltips="1" connect="1" arrows="1" fold="1" page="1" pageScale="1" pageWidth="850" pageHeight="1100" math="0" shadow="0" extFonts="Permanent Marker^https://fonts.googleapis.com/css?family=Permanent+Marker">
      <root>
        <mxCell id="0" />
        <mxCell id="1" parent="0" />
        <mxCell id="0Ei-wIlIJLgOCzO8SAqC-1" value="Colors" style="shape=table;startSize=30;container=1;collapsible=1;childLayout=tableLayout;fixedRows=1;rowLines=0;fontStyle=1;align=center;resizeLast=1;" parent="1" vertex="1">
          <mxGeometry x="30" y="130" width="250" height="100" as="geometry" />
        </mxCell>
        <mxCell id="0Ei-wIlIJLgOCzO8SAqC-2" value="" style="shape=partialRectangle;collapsible=0;dropTarget=0;pointerEvents=0;fillColor=none;points=[[0,0.5],[1,0.5]];portConstraint=eastwest;top=0;left=0;right=0;bottom=1;" parent="0Ei-wIlIJLgOCzO8SAqC-1" vertex="1">
          <mxGeometry y="30" width="250" height="30" as="geometry" />
        </mxCell>
        <mxCell id="0Ei-wIlIJLgOCzO8SAqC-3" value="PK" style="shape=partialRectangle;overflow=hidden;connectable=0;fillColor=none;top=0;left=0;bottom=0;right=0;fontStyle=1;" parent="0Ei-wIlIJLgOCzO8SAqC-2" vertex="1">
          <mxGeometry width="30" height="30" as="geometry">
            <mxRectangle width="30" height="30" as="alternateBounds" />
          </mxGeometry>
        </mxCell>
        <mxCell id="0Ei-wIlIJLgOCzO8SAqC-4" value="id INT NOT NULL " style="shape=partialRectangle;overflow=hidden;connectable=0;fillColor=none;top=0;left=0;bottom=0;right=0;align=left;spacingLeft=6;fontStyle=5;" parent="0Ei-wIlIJLgOCzO8SAqC-2" vertex="1">
          <mxGeometry x="30" width="220" height="30" as="geometry">
            <mxRectangle width="220" height="30" as="alternateBounds" />
          </mxGeometry>
        </mxCell>
        <mxCell id="0Ei-wIlIJLgOCzO8SAqC-5" value="" style="shape=partialRectangle;collapsible=0;dropTarget=0;pointerEvents=0;fillColor=none;points=[[0,0.5],[1,0.5]];portConstraint=eastwest;top=0;left=0;right=0;bottom=0;" parent="0Ei-wIlIJLgOCzO8SAqC-1" vertex="1">
          <mxGeometry y="60" width="250" height="30" as="geometry" />
        </mxCell>
        <mxCell id="0Ei-wIlIJLgOCzO8SAqC-6" value="" style="shape=partialRectangle;overflow=hidden;connectable=0;fillColor=none;top=0;left=0;bottom=0;right=0;" parent="0Ei-wIlIJLgOCzO8SAqC-5" vertex="1">
          <mxGeometry width="30" height="30" as="geometry">
            <mxRectangle width="30" height="30" as="alternateBounds" />
          </mxGeometry>
        </mxCell>
        <mxCell id="0Ei-wIlIJLgOCzO8SAqC-7" value="name VARCHAR(30) NOT NULL" style="shape=partialRectangle;overflow=hidden;connectable=0;fillColor=none;top=0;left=0;bottom=0;right=0;align=left;spacingLeft=6;" parent="0Ei-wIlIJLgOCzO8SAqC-5" vertex="1">
          <mxGeometry x="30" width="220" height="30" as="geometry">
            <mxRectangle width="220" height="30" as="alternateBounds" />
          </mxGeometry>
        </mxCell>
        <mxCell id="0Ei-wIlIJLgOCzO8SAqC-43" style="edgeStyle=orthogonalEdgeStyle;rounded=0;orthogonalLoop=1;jettySize=auto;html=1;entryX=0.5;entryY=0;entryDx=0;entryDy=0;endArrow=none;endFill=0;" parent="1" source="0Ei-wIlIJLgOCzO8SAqC-8" target="0Ei-wIlIJLgOCzO8SAqC-41" edge="1">
          <mxGeometry relative="1" as="geometry" />
        </mxCell>
        <mxCell id="0Ei-wIlIJLgOCzO8SAqC-45" value="0,N" style="edgeLabel;html=1;align=center;verticalAlign=middle;resizable=0;points=[];" parent="0Ei-wIlIJLgOCzO8SAqC-43" vertex="1" connectable="0">
          <mxGeometry x="-0.4993" relative="1" as="geometry">
            <mxPoint as="offset" />
          </mxGeometry>
        </mxCell>
        <mxCell id="0Ei-wIlIJLgOCzO8SAqC-8" value="Cards" style="shape=table;startSize=30;container=1;collapsible=1;childLayout=tableLayout;fixedRows=1;rowLines=0;fontStyle=1;align=center;resizeLast=1;html=1;" parent="1" vertex="1">
          <mxGeometry x="490" y="130" width="215" height="90" as="geometry" />
        </mxCell>
        <mxCell id="0Ei-wIlIJLgOCzO8SAqC-9" value="" style="shape=tableRow;horizontal=0;startSize=0;swimlaneHead=0;swimlaneBody=0;fillColor=none;collapsible=0;dropTarget=0;points=[[0,0.5],[1,0.5]];portConstraint=eastwest;top=0;left=0;right=0;bottom=1;" parent="0Ei-wIlIJLgOCzO8SAqC-8" vertex="1">
          <mxGeometry y="30" width="215" height="30" as="geometry" />
        </mxCell>
        <mxCell id="0Ei-wIlIJLgOCzO8SAqC-10" value="PK" style="shape=partialRectangle;connectable=0;fillColor=none;top=0;left=0;bottom=0;right=0;fontStyle=1;overflow=hidden;whiteSpace=wrap;html=1;" parent="0Ei-wIlIJLgOCzO8SAqC-9" vertex="1">
          <mxGeometry width="30" height="30" as="geometry">
            <mxRectangle width="30" height="30" as="alternateBounds" />
          </mxGeometry>
        </mxCell>
        <mxCell id="0Ei-wIlIJLgOCzO8SAqC-11" value="id&amp;nbsp;&lt;span style=&quot;text-wrap: nowrap;&quot;&gt;INT NOT NULL&lt;/span&gt;" style="shape=partialRectangle;connectable=0;fillColor=none;top=0;left=0;bottom=0;right=0;align=left;spacingLeft=6;fontStyle=5;overflow=hidden;whiteSpace=wrap;html=1;" parent="0Ei-wIlIJLgOCzO8SAqC-9" vertex="1">
          <mxGeometry x="30" width="185" height="30" as="geometry">
            <mxRectangle width="185" height="30" as="alternateBounds" />
          </mxGeometry>
        </mxCell>
        <mxCell id="0Ei-wIlIJLgOCzO8SAqC-12" value="" style="shape=tableRow;horizontal=0;startSize=0;swimlaneHead=0;swimlaneBody=0;fillColor=none;collapsible=0;dropTarget=0;points=[[0,0.5],[1,0.5]];portConstraint=eastwest;top=0;left=0;right=0;bottom=0;" parent="0Ei-wIlIJLgOCzO8SAqC-8" vertex="1">
          <mxGeometry y="60" width="215" height="30" as="geometry" />
        </mxCell>
        <mxCell id="0Ei-wIlIJLgOCzO8SAqC-13" value="" style="shape=partialRectangle;connectable=0;fillColor=none;top=0;left=0;bottom=0;right=0;editable=1;overflow=hidden;whiteSpace=wrap;html=1;" parent="0Ei-wIlIJLgOCzO8SAqC-12" vertex="1">
          <mxGeometry width="30" height="30" as="geometry">
            <mxRectangle width="30" height="30" as="alternateBounds" />
          </mxGeometry>
        </mxCell>
        <mxCell id="0Ei-wIlIJLgOCzO8SAqC-14" value="word VARCHAR(30) NOT NULL" style="shape=partialRectangle;connectable=0;fillColor=none;top=0;left=0;bottom=0;right=0;align=left;spacingLeft=6;overflow=hidden;whiteSpace=wrap;html=1;" parent="0Ei-wIlIJLgOCzO8SAqC-12" vertex="1">
          <mxGeometry x="30" width="185" height="30" as="geometry">
            <mxRectangle width="185" height="30" as="alternateBounds" />
          </mxGeometry>
        </mxCell>
        <mxCell id="0Ei-wIlIJLgOCzO8SAqC-24" style="edgeStyle=orthogonalEdgeStyle;rounded=0;orthogonalLoop=1;jettySize=auto;html=1;entryX=0;entryY=0.5;entryDx=0;entryDy=0;endArrow=none;endFill=0;" parent="1" source="0Ei-wIlIJLgOCzO8SAqC-21" target="0Ei-wIlIJLgOCzO8SAqC-9" edge="1">
          <mxGeometry relative="1" as="geometry" />
        </mxCell>
        <mxCell id="0Ei-wIlIJLgOCzO8SAqC-26" value="1,1" style="edgeLabel;html=1;align=center;verticalAlign=middle;resizable=0;points=[];" parent="0Ei-wIlIJLgOCzO8SAqC-24" vertex="1" connectable="0">
          <mxGeometry x="0.3851" relative="1" as="geometry">
            <mxPoint as="offset" />
          </mxGeometry>
        </mxCell>
        <mxCell id="0Ei-wIlIJLgOCzO8SAqC-21" value="paint" style="ellipse;whiteSpace=wrap;html=1;align=center;" parent="1" vertex="1">
          <mxGeometry x="330" y="155" width="100" height="40" as="geometry" />
        </mxCell>
        <mxCell id="0Ei-wIlIJLgOCzO8SAqC-22" style="edgeStyle=orthogonalEdgeStyle;rounded=0;orthogonalLoop=1;jettySize=auto;html=1;entryX=0;entryY=0.5;entryDx=0;entryDy=0;endArrow=none;endFill=0;startArrow=none;startFill=0;" parent="1" source="0Ei-wIlIJLgOCzO8SAqC-2" target="0Ei-wIlIJLgOCzO8SAqC-21" edge="1">
          <mxGeometry relative="1" as="geometry" />
        </mxCell>
        <mxCell id="0Ei-wIlIJLgOCzO8SAqC-25" value="1,N" style="edgeLabel;html=1;align=center;verticalAlign=middle;resizable=0;points=[];" parent="0Ei-wIlIJLgOCzO8SAqC-22" vertex="1" connectable="0">
          <mxGeometry x="-0.731" relative="1" as="geometry">
            <mxPoint x="13" as="offset" />
          </mxGeometry>
        </mxCell>
        <mxCell id="0Ei-wIlIJLgOCzO8SAqC-28" value="Cells" style="shape=table;startSize=30;container=1;collapsible=1;childLayout=tableLayout;fixedRows=1;rowLines=0;fontStyle=1;align=center;resizeLast=1;html=1;" parent="1" vertex="1">
          <mxGeometry x="507.5" y="370" width="180" height="90" as="geometry" />
        </mxCell>
        <mxCell id="0Ei-wIlIJLgOCzO8SAqC-29" value="" style="shape=tableRow;horizontal=0;startSize=0;swimlaneHead=0;swimlaneBody=0;fillColor=none;collapsible=0;dropTarget=0;points=[[0,0.5],[1,0.5]];portConstraint=eastwest;top=0;left=0;right=0;bottom=1;" parent="0Ei-wIlIJLgOCzO8SAqC-28" vertex="1">
          <mxGeometry y="30" width="180" height="30" as="geometry" />
        </mxCell>
        <mxCell id="0Ei-wIlIJLgOCzO8SAqC-30" value="PK" style="shape=partialRectangle;connectable=0;fillColor=none;top=0;left=0;bottom=0;right=0;fontStyle=1;overflow=hidden;whiteSpace=wrap;html=1;" parent="0Ei-wIlIJLgOCzO8SAqC-29" vertex="1">
          <mxGeometry width="30" height="30" as="geometry">
            <mxRectangle width="30" height="30" as="alternateBounds" />
          </mxGeometry>
        </mxCell>
        <mxCell id="0Ei-wIlIJLgOCzO8SAqC-31" value="id&amp;nbsp;&lt;span style=&quot;text-wrap: nowrap;&quot;&gt;INT NOT NULL&lt;/span&gt;" style="shape=partialRectangle;connectable=0;fillColor=none;top=0;left=0;bottom=0;right=0;align=left;spacingLeft=6;fontStyle=5;overflow=hidden;whiteSpace=wrap;html=1;" parent="0Ei-wIlIJLgOCzO8SAqC-29" vertex="1">
          <mxGeometry x="30" width="150" height="30" as="geometry">
            <mxRectangle width="150" height="30" as="alternateBounds" />
          </mxGeometry>
        </mxCell>
        <mxCell id="0Ei-wIlIJLgOCzO8SAqC-32" value="" style="shape=tableRow;horizontal=0;startSize=0;swimlaneHead=0;swimlaneBody=0;fillColor=none;collapsible=0;dropTarget=0;points=[[0,0.5],[1,0.5]];portConstraint=eastwest;top=0;left=0;right=0;bottom=0;" parent="0Ei-wIlIJLgOCzO8SAqC-28" vertex="1">
          <mxGeometry y="60" width="180" height="30" as="geometry" />
        </mxCell>
        <mxCell id="0Ei-wIlIJLgOCzO8SAqC-33" value="" style="shape=partialRectangle;connectable=0;fillColor=none;top=0;left=0;bottom=0;right=0;editable=1;overflow=hidden;whiteSpace=wrap;html=1;" parent="0Ei-wIlIJLgOCzO8SAqC-32" vertex="1">
          <mxGeometry width="30" height="30" as="geometry">
            <mxRectangle width="30" height="30" as="alternateBounds" />
          </mxGeometry>
        </mxCell>
        <mxCell id="0Ei-wIlIJLgOCzO8SAqC-34" value="revealed BIT&lt;span style=&quot;background-color: initial;&quot;&gt;&amp;nbsp;NOT NULL&lt;/span&gt;" style="shape=partialRectangle;connectable=0;fillColor=none;top=0;left=0;bottom=0;right=0;align=left;spacingLeft=6;overflow=hidden;whiteSpace=wrap;html=1;" parent="0Ei-wIlIJLgOCzO8SAqC-32" vertex="1">
          <mxGeometry x="30" width="150" height="30" as="geometry">
            <mxRectangle width="150" height="30" as="alternateBounds" />
          </mxGeometry>
        </mxCell>
        <mxCell id="0Ei-wIlIJLgOCzO8SAqC-44" style="edgeStyle=orthogonalEdgeStyle;rounded=0;orthogonalLoop=1;jettySize=auto;html=1;entryX=0.5;entryY=0;entryDx=0;entryDy=0;endArrow=none;endFill=0;" parent="1" source="0Ei-wIlIJLgOCzO8SAqC-41" target="0Ei-wIlIJLgOCzO8SAqC-28" edge="1">
          <mxGeometry relative="1" as="geometry" />
        </mxCell>
        <mxCell id="0Ei-wIlIJLgOCzO8SAqC-46" value="1,1" style="edgeLabel;html=1;align=center;verticalAlign=middle;resizable=0;points=[];" parent="0Ei-wIlIJLgOCzO8SAqC-44" vertex="1" connectable="0">
          <mxGeometry x="0.6241" relative="1" as="geometry">
            <mxPoint as="offset" />
          </mxGeometry>
        </mxCell>
        <mxCell id="0Ei-wIlIJLgOCzO8SAqC-41" value="place" style="ellipse;whiteSpace=wrap;html=1;align=center;" parent="1" vertex="1">
          <mxGeometry x="547.5" y="270" width="100" height="40" as="geometry" />
        </mxCell>
        <mxCell id="0Ei-wIlIJLgOCzO8SAqC-64" style="edgeStyle=orthogonalEdgeStyle;rounded=0;orthogonalLoop=1;jettySize=auto;html=1;entryX=0;entryY=0.5;entryDx=0;entryDy=0;endArrow=none;endFill=0;" parent="1" source="0Ei-wIlIJLgOCzO8SAqC-47" target="0Ei-wIlIJLgOCzO8SAqC-60" edge="1">
          <mxGeometry relative="1" as="geometry" />
        </mxCell>
        <mxCell id="0Ei-wIlIJLgOCzO8SAqC-67" value="1,N" style="edgeLabel;html=1;align=center;verticalAlign=middle;resizable=0;points=[];" parent="0Ei-wIlIJLgOCzO8SAqC-64" vertex="1" connectable="0">
          <mxGeometry x="-0.4885" relative="1" as="geometry">
            <mxPoint as="offset" />
          </mxGeometry>
        </mxCell>
        <mxCell id="0Ei-wIlIJLgOCzO8SAqC-83" style="edgeStyle=orthogonalEdgeStyle;rounded=0;orthogonalLoop=1;jettySize=auto;html=1;entryX=0.5;entryY=0;entryDx=0;entryDy=0;endArrow=none;endFill=0;" parent="1" source="0Ei-wIlIJLgOCzO8SAqC-47" target="0Ei-wIlIJLgOCzO8SAqC-81" edge="1">
          <mxGeometry relative="1" as="geometry" />
        </mxCell>
        <mxCell id="0Ei-wIlIJLgOCzO8SAqC-86" value="1,1" style="edgeLabel;html=1;align=center;verticalAlign=middle;resizable=0;points=[];" parent="0Ei-wIlIJLgOCzO8SAqC-83" vertex="1" connectable="0">
          <mxGeometry x="-0.6514" y="1" relative="1" as="geometry">
            <mxPoint as="offset" />
          </mxGeometry>
        </mxCell>
        <mxCell id="0Ei-wIlIJLgOCzO8SAqC-47" value="Grids" style="shape=table;startSize=30;container=1;collapsible=1;childLayout=tableLayout;fixedRows=1;rowLines=0;fontStyle=1;align=center;resizeLast=1;html=1;" parent="1" vertex="1">
          <mxGeometry x="90" y="385" width="180" height="60" as="geometry" />
        </mxCell>
        <mxCell id="0Ei-wIlIJLgOCzO8SAqC-48" value="" style="shape=tableRow;horizontal=0;startSize=0;swimlaneHead=0;swimlaneBody=0;fillColor=none;collapsible=0;dropTarget=0;points=[[0,0.5],[1,0.5]];portConstraint=eastwest;top=0;left=0;right=0;bottom=1;" parent="0Ei-wIlIJLgOCzO8SAqC-47" vertex="1">
          <mxGeometry y="30" width="180" height="30" as="geometry" />
        </mxCell>
        <mxCell id="0Ei-wIlIJLgOCzO8SAqC-49" value="PK" style="shape=partialRectangle;connectable=0;fillColor=none;top=0;left=0;bottom=0;right=0;fontStyle=1;overflow=hidden;whiteSpace=wrap;html=1;" parent="0Ei-wIlIJLgOCzO8SAqC-48" vertex="1">
          <mxGeometry width="30" height="30" as="geometry">
            <mxRectangle width="30" height="30" as="alternateBounds" />
          </mxGeometry>
        </mxCell>
        <mxCell id="0Ei-wIlIJLgOCzO8SAqC-50" value="id&amp;nbsp;&lt;span style=&quot;text-wrap: nowrap;&quot;&gt;INT NOT NULL&lt;/span&gt;" style="shape=partialRectangle;connectable=0;fillColor=none;top=0;left=0;bottom=0;right=0;align=left;spacingLeft=6;fontStyle=5;overflow=hidden;whiteSpace=wrap;html=1;" parent="0Ei-wIlIJLgOCzO8SAqC-48" vertex="1">
          <mxGeometry x="30" width="150" height="30" as="geometry">
            <mxRectangle width="150" height="30" as="alternateBounds" />
          </mxGeometry>
        </mxCell>
        <mxCell id="0Ei-wIlIJLgOCzO8SAqC-60" value="contain" style="ellipse;whiteSpace=wrap;html=1;align=center;" parent="1" vertex="1">
          <mxGeometry x="330" y="395" width="100" height="40" as="geometry" />
        </mxCell>
        <mxCell id="0Ei-wIlIJLgOCzO8SAqC-65" style="edgeStyle=orthogonalEdgeStyle;rounded=0;orthogonalLoop=1;jettySize=auto;html=1;entryX=1;entryY=0.5;entryDx=0;entryDy=0;endArrow=none;endFill=0;" parent="1" source="0Ei-wIlIJLgOCzO8SAqC-29" target="0Ei-wIlIJLgOCzO8SAqC-60" edge="1">
          <mxGeometry relative="1" as="geometry" />
        </mxCell>
        <mxCell id="0Ei-wIlIJLgOCzO8SAqC-66" value="1,1" style="edgeLabel;html=1;align=center;verticalAlign=middle;resizable=0;points=[];" parent="0Ei-wIlIJLgOCzO8SAqC-65" vertex="1" connectable="0">
          <mxGeometry x="-0.5884" relative="1" as="geometry">
            <mxPoint as="offset" />
          </mxGeometry>
        </mxCell>
        <mxCell id="0Ei-wIlIJLgOCzO8SAqC-84" style="edgeStyle=orthogonalEdgeStyle;rounded=0;orthogonalLoop=1;jettySize=auto;html=1;entryX=0.5;entryY=1;entryDx=0;entryDy=0;endArrow=none;endFill=0;" parent="1" source="0Ei-wIlIJLgOCzO8SAqC-68" target="0Ei-wIlIJLgOCzO8SAqC-81" edge="1">
          <mxGeometry relative="1" as="geometry" />
        </mxCell>
        <mxCell id="0Ei-wIlIJLgOCzO8SAqC-85" value="0,1" style="edgeLabel;html=1;align=center;verticalAlign=middle;resizable=0;points=[];" parent="0Ei-wIlIJLgOCzO8SAqC-84" vertex="1" connectable="0">
          <mxGeometry x="-0.4057" y="-1" relative="1" as="geometry">
            <mxPoint x="-1" y="8" as="offset" />
          </mxGeometry>
        </mxCell>
        <mxCell id="0Ei-wIlIJLgOCzO8SAqC-68" value="Games" style="shape=table;startSize=30;container=1;collapsible=1;childLayout=tableLayout;fixedRows=1;rowLines=0;fontStyle=1;align=center;resizeLast=1;html=1;" parent="1" vertex="1">
          <mxGeometry x="75" y="600" width="210" height="90" as="geometry" />
        </mxCell>
        <mxCell id="0Ei-wIlIJLgOCzO8SAqC-69" value="" style="shape=tableRow;horizontal=0;startSize=0;swimlaneHead=0;swimlaneBody=0;fillColor=none;collapsible=0;dropTarget=0;points=[[0,0.5],[1,0.5]];portConstraint=eastwest;top=0;left=0;right=0;bottom=1;" parent="0Ei-wIlIJLgOCzO8SAqC-68" vertex="1">
          <mxGeometry y="30" width="210" height="30" as="geometry" />
        </mxCell>
        <mxCell id="0Ei-wIlIJLgOCzO8SAqC-70" value="PK" style="shape=partialRectangle;connectable=0;fillColor=none;top=0;left=0;bottom=0;right=0;fontStyle=1;overflow=hidden;whiteSpace=wrap;html=1;" parent="0Ei-wIlIJLgOCzO8SAqC-69" vertex="1">
          <mxGeometry width="30" height="30" as="geometry">
            <mxRectangle width="30" height="30" as="alternateBounds" />
          </mxGeometry>
        </mxCell>
        <mxCell id="0Ei-wIlIJLgOCzO8SAqC-71" value="id&amp;nbsp;&lt;span style=&quot;text-wrap: nowrap;&quot;&gt;INT NOT NULL&lt;/span&gt;" style="shape=partialRectangle;connectable=0;fillColor=none;top=0;left=0;bottom=0;right=0;align=left;spacingLeft=6;fontStyle=5;overflow=hidden;whiteSpace=wrap;html=1;" parent="0Ei-wIlIJLgOCzO8SAqC-69" vertex="1">
          <mxGeometry x="30" width="180" height="30" as="geometry">
            <mxRectangle width="180" height="30" as="alternateBounds" />
          </mxGeometry>
        </mxCell>
        <mxCell id="0Ei-wIlIJLgOCzO8SAqC-72" value="" style="shape=tableRow;horizontal=0;startSize=0;swimlaneHead=0;swimlaneBody=0;fillColor=none;collapsible=0;dropTarget=0;points=[[0,0.5],[1,0.5]];portConstraint=eastwest;top=0;left=0;right=0;bottom=0;" parent="0Ei-wIlIJLgOCzO8SAqC-68" vertex="1">
          <mxGeometry y="60" width="210" height="30" as="geometry" />
        </mxCell>
        <mxCell id="0Ei-wIlIJLgOCzO8SAqC-73" value="" style="shape=partialRectangle;connectable=0;fillColor=none;top=0;left=0;bottom=0;right=0;editable=1;overflow=hidden;whiteSpace=wrap;html=1;" parent="0Ei-wIlIJLgOCzO8SAqC-72" vertex="1">
          <mxGeometry width="30" height="30" as="geometry">
            <mxRectangle width="30" height="30" as="alternateBounds" />
          </mxGeometry>
        </mxCell>
        <mxCell id="0Ei-wIlIJLgOCzO8SAqC-74" value="joinCode CHAR(10) NOT NULL" style="shape=partialRectangle;connectable=0;fillColor=none;top=0;left=0;bottom=0;right=0;align=left;spacingLeft=6;overflow=hidden;whiteSpace=wrap;html=1;" parent="0Ei-wIlIJLgOCzO8SAqC-72" vertex="1">
          <mxGeometry x="30" width="180" height="30" as="geometry">
            <mxRectangle width="180" height="30" as="alternateBounds" />
          </mxGeometry>
        </mxCell>
        <mxCell id="0Ei-wIlIJLgOCzO8SAqC-81" value="Attribute" style="ellipse;whiteSpace=wrap;html=1;align=center;" parent="1" vertex="1">
          <mxGeometry x="130" y="500" width="100" height="40" as="geometry" />
        </mxCell>
        <mxCell id="0Ei-wIlIJLgOCzO8SAqC-87" value="Players" style="shape=table;startSize=30;container=1;collapsible=1;childLayout=tableLayout;fixedRows=1;rowLines=0;fontStyle=1;align=center;resizeLast=1;html=1;" parent="1" vertex="1">
          <mxGeometry x="507.5" y="560" width="262.5" height="120" as="geometry" />
        </mxCell>
        <mxCell id="0Ei-wIlIJLgOCzO8SAqC-88" value="" style="shape=tableRow;horizontal=0;startSize=0;swimlaneHead=0;swimlaneBody=0;fillColor=none;collapsible=0;dropTarget=0;points=[[0,0.5],[1,0.5]];portConstraint=eastwest;top=0;left=0;right=0;bottom=1;" parent="0Ei-wIlIJLgOCzO8SAqC-87" vertex="1">
          <mxGeometry y="30" width="262.5" height="30" as="geometry" />
        </mxCell>
        <mxCell id="0Ei-wIlIJLgOCzO8SAqC-89" value="PK" style="shape=partialRectangle;connectable=0;fillColor=none;top=0;left=0;bottom=0;right=0;fontStyle=1;overflow=hidden;whiteSpace=wrap;html=1;" parent="0Ei-wIlIJLgOCzO8SAqC-88" vertex="1">
          <mxGeometry width="30" height="30" as="geometry">
            <mxRectangle width="30" height="30" as="alternateBounds" />
          </mxGeometry>
        </mxCell>
        <mxCell id="0Ei-wIlIJLgOCzO8SAqC-90" value="id&amp;nbsp;&lt;span style=&quot;text-wrap: nowrap;&quot;&gt;INT NOT NULL&lt;/span&gt;" style="shape=partialRectangle;connectable=0;fillColor=none;top=0;left=0;bottom=0;right=0;align=left;spacingLeft=6;fontStyle=5;overflow=hidden;whiteSpace=wrap;html=1;" parent="0Ei-wIlIJLgOCzO8SAqC-88" vertex="1">
          <mxGeometry x="30" width="232.5" height="30" as="geometry">
            <mxRectangle width="232.5" height="30" as="alternateBounds" />
          </mxGeometry>
        </mxCell>
        <mxCell id="0Ei-wIlIJLgOCzO8SAqC-91" value="" style="shape=tableRow;horizontal=0;startSize=0;swimlaneHead=0;swimlaneBody=0;fillColor=none;collapsible=0;dropTarget=0;points=[[0,0.5],[1,0.5]];portConstraint=eastwest;top=0;left=0;right=0;bottom=0;" parent="0Ei-wIlIJLgOCzO8SAqC-87" vertex="1">
          <mxGeometry y="60" width="262.5" height="30" as="geometry" />
        </mxCell>
        <mxCell id="0Ei-wIlIJLgOCzO8SAqC-92" value="" style="shape=partialRectangle;connectable=0;fillColor=none;top=0;left=0;bottom=0;right=0;editable=1;overflow=hidden;whiteSpace=wrap;html=1;" parent="0Ei-wIlIJLgOCzO8SAqC-91" vertex="1">
          <mxGeometry width="30" height="30" as="geometry">
            <mxRectangle width="30" height="30" as="alternateBounds" />
          </mxGeometry>
        </mxCell>
        <mxCell id="0Ei-wIlIJLgOCzO8SAqC-93" value="returnCode CHAR(11) NOT NULL" style="shape=partialRectangle;connectable=0;fillColor=none;top=0;left=0;bottom=0;right=0;align=left;spacingLeft=6;overflow=hidden;whiteSpace=wrap;html=1;" parent="0Ei-wIlIJLgOCzO8SAqC-91" vertex="1">
          <mxGeometry x="30" width="232.5" height="30" as="geometry">
            <mxRectangle width="232.5" height="30" as="alternateBounds" />
          </mxGeometry>
        </mxCell>
        <mxCell id="0Ei-wIlIJLgOCzO8SAqC-94" value="" style="shape=tableRow;horizontal=0;startSize=0;swimlaneHead=0;swimlaneBody=0;fillColor=none;collapsible=0;dropTarget=0;points=[[0,0.5],[1,0.5]];portConstraint=eastwest;top=0;left=0;right=0;bottom=0;" parent="0Ei-wIlIJLgOCzO8SAqC-87" vertex="1">
          <mxGeometry y="90" width="262.5" height="30" as="geometry" />
        </mxCell>
        <mxCell id="0Ei-wIlIJLgOCzO8SAqC-95" value="" style="shape=partialRectangle;connectable=0;fillColor=none;top=0;left=0;bottom=0;right=0;editable=1;overflow=hidden;whiteSpace=wrap;html=1;" parent="0Ei-wIlIJLgOCzO8SAqC-94" vertex="1">
          <mxGeometry width="30" height="30" as="geometry">
            <mxRectangle width="30" height="30" as="alternateBounds" />
          </mxGeometry>
        </mxCell>
        <mxCell id="0Ei-wIlIJLgOCzO8SAqC-96" value="pseudo VARCHAR(10) NOT NULL" style="shape=partialRectangle;connectable=0;fillColor=none;top=0;left=0;bottom=0;right=0;align=left;spacingLeft=6;overflow=hidden;whiteSpace=wrap;html=1;" parent="0Ei-wIlIJLgOCzO8SAqC-94" vertex="1">
          <mxGeometry x="30" width="232.5" height="30" as="geometry">
            <mxRectangle width="232.5" height="30" as="alternateBounds" />
          </mxGeometry>
        </mxCell>
        <mxCell id="0Ei-wIlIJLgOCzO8SAqC-101" style="edgeStyle=orthogonalEdgeStyle;rounded=0;orthogonalLoop=1;jettySize=auto;html=1;entryX=0.5;entryY=0;entryDx=0;entryDy=0;endArrow=none;endFill=0;" parent="1" source="0Ei-wIlIJLgOCzO8SAqC-100" target="0Ei-wIlIJLgOCzO8SAqC-87" edge="1">
          <mxGeometry relative="1" as="geometry" />
        </mxCell>
        <mxCell id="0Ei-wIlIJLgOCzO8SAqC-104" value="1,1" style="edgeLabel;html=1;align=center;verticalAlign=middle;resizable=0;points=[];" parent="0Ei-wIlIJLgOCzO8SAqC-101" vertex="1" connectable="0">
          <mxGeometry x="0.8969" y="1" relative="1" as="geometry">
            <mxPoint as="offset" />
          </mxGeometry>
        </mxCell>
        <mxCell id="0Ei-wIlIJLgOCzO8SAqC-102" style="edgeStyle=orthogonalEdgeStyle;rounded=0;orthogonalLoop=1;jettySize=auto;html=1;entryX=0.75;entryY=0;entryDx=0;entryDy=0;endArrow=none;endFill=0;" parent="1" source="0Ei-wIlIJLgOCzO8SAqC-100" target="0Ei-wIlIJLgOCzO8SAqC-68" edge="1">
          <mxGeometry relative="1" as="geometry">
            <Array as="points">
              <mxPoint x="300" y="520" />
              <mxPoint x="300" y="560" />
              <mxPoint x="233" y="560" />
            </Array>
          </mxGeometry>
        </mxCell>
        <mxCell id="0Ei-wIlIJLgOCzO8SAqC-103" value="0,1" style="edgeLabel;html=1;align=center;verticalAlign=middle;resizable=0;points=[];" parent="0Ei-wIlIJLgOCzO8SAqC-102" vertex="1" connectable="0">
          <mxGeometry x="0.8868" relative="1" as="geometry">
            <mxPoint as="offset" />
          </mxGeometry>
        </mxCell>
        <mxCell id="0Ei-wIlIJLgOCzO8SAqC-100" value="play" style="ellipse;whiteSpace=wrap;html=1;align=center;" parent="1" vertex="1">
          <mxGeometry x="340" y="500" width="100" height="40" as="geometry" />
        </mxCell>
        <mxCell id="0Ei-wIlIJLgOCzO8SAqC-106" style="edgeStyle=orthogonalEdgeStyle;rounded=0;orthogonalLoop=1;jettySize=auto;html=1;entryX=1;entryY=0.5;entryDx=0;entryDy=0;endArrow=none;endFill=0;" parent="1" source="0Ei-wIlIJLgOCzO8SAqC-105" target="0Ei-wIlIJLgOCzO8SAqC-69" edge="1">
          <mxGeometry relative="1" as="geometry" />
        </mxCell>
        <mxCell id="0Ei-wIlIJLgOCzO8SAqC-108" value="0,1" style="edgeLabel;html=1;align=center;verticalAlign=middle;resizable=0;points=[];" parent="0Ei-wIlIJLgOCzO8SAqC-106" vertex="1" connectable="0">
          <mxGeometry x="0.5225" relative="1" as="geometry">
            <mxPoint as="offset" />
          </mxGeometry>
        </mxCell>
        <mxCell id="0Ei-wIlIJLgOCzO8SAqC-107" style="edgeStyle=orthogonalEdgeStyle;rounded=0;orthogonalLoop=1;jettySize=auto;html=1;entryX=0;entryY=0.5;entryDx=0;entryDy=0;endArrow=none;endFill=0;" parent="1" source="0Ei-wIlIJLgOCzO8SAqC-105" target="0Ei-wIlIJLgOCzO8SAqC-91" edge="1">
          <mxGeometry relative="1" as="geometry" />
        </mxCell>
        <mxCell id="0Ei-wIlIJLgOCzO8SAqC-109" value="1,1" style="edgeLabel;html=1;align=center;verticalAlign=middle;resizable=0;points=[];" parent="0Ei-wIlIJLgOCzO8SAqC-107" vertex="1" connectable="0">
          <mxGeometry x="0.4457" relative="1" as="geometry">
            <mxPoint x="1" as="offset" />
          </mxGeometry>
        </mxCell>
        <mxCell id="0Ei-wIlIJLgOCzO8SAqC-105" value="play" style="ellipse;whiteSpace=wrap;html=1;align=center;" parent="1" vertex="1">
          <mxGeometry x="350" y="625" width="100" height="40" as="geometry" />
        </mxCell>
        <mxCell id="0Ei-wIlIJLgOCzO8SAqC-110" value="word master" style="text;html=1;align=center;verticalAlign=middle;resizable=0;points=[];autosize=1;strokeColor=none;fillColor=none;" parent="1" vertex="1">
          <mxGeometry x="345" y="535" width="90" height="30" as="geometry" />
        </mxCell>
        <mxCell id="0Ei-wIlIJLgOCzO8SAqC-111" value="guess master" style="text;html=1;align=center;verticalAlign=middle;resizable=0;points=[];autosize=1;strokeColor=none;fillColor=none;" parent="1" vertex="1">
          <mxGeometry x="350" y="660" width="100" height="30" as="geometry" />
        </mxCell>
        <mxCell id="GyR0WOetXuMyicm1Z5Vj-2" value="&lt;div style=&quot;text-align: left; font-size: 14px;&quot;&gt;&lt;span style=&quot;text-wrap: nowrap; background-color: initial;&quot;&gt;&lt;font style=&quot;font-size: 14px;&quot;&gt;&lt;b&gt;Modèle relationnel :&lt;/b&gt;&lt;/font&gt;&lt;/span&gt;&lt;/div&gt;&lt;div style=&quot;text-align: left; font-size: 14px;&quot;&gt;&lt;span style=&quot;text-wrap: nowrap; background-color: initial;&quot;&gt;&lt;font style=&quot;font-size: 14px;&quot;&gt;Colors(&lt;b&gt;&lt;u&gt;id&lt;/u&gt;&lt;/b&gt;, name)&lt;/font&gt;&lt;/span&gt;&lt;/div&gt;&lt;div style=&quot;text-align: left; font-size: 14px;&quot;&gt;&lt;span style=&quot;text-wrap: nowrap;&quot;&gt;&lt;font style=&quot;font-size: 14px;&quot;&gt;Cards(&lt;b&gt;&lt;u&gt;id&lt;/u&gt;&lt;/b&gt;, word, #idColors)&lt;/font&gt;&lt;/span&gt;&lt;/div&gt;&lt;div style=&quot;text-align: left; font-size: 14px;&quot;&gt;&lt;span style=&quot;text-wrap: nowrap;&quot;&gt;&lt;font style=&quot;font-size: 14px;&quot;&gt;Cells(&lt;b&gt;&lt;u&gt;id&lt;/u&gt;&lt;/b&gt;, revealed, #idCard, #idGrid)&lt;/font&gt;&lt;/span&gt;&lt;/div&gt;&lt;div style=&quot;text-align: left; font-size: 14px;&quot;&gt;&lt;span style=&quot;text-wrap: nowrap;&quot;&gt;&lt;font style=&quot;font-size: 14px;&quot;&gt;Grids(&lt;b&gt;&lt;u&gt;id&lt;/u&gt;&lt;/b&gt;)&lt;/font&gt;&lt;/span&gt;&lt;/div&gt;&lt;div style=&quot;text-align: left; font-size: 14px;&quot;&gt;&lt;span style=&quot;text-wrap: nowrap;&quot;&gt;&lt;font style=&quot;font-size: 14px;&quot;&gt;Players(&lt;b&gt;&lt;u&gt;id&lt;/u&gt;&lt;/b&gt;, returnCode, pseudo)&lt;/font&gt;&lt;/span&gt;&lt;/div&gt;&lt;div style=&quot;text-align: left; font-size: 14px;&quot;&gt;&lt;span style=&quot;text-wrap: nowrap;&quot;&gt;&lt;font style=&quot;font-size: 14px;&quot;&gt;Games(&lt;b&gt;&lt;u&gt;id&lt;/u&gt;&lt;/b&gt;, joinCode, #idWordMaster, #idGuessMaster, #idGrid)&lt;/font&gt;&lt;/span&gt;&lt;/div&gt;" style="rounded=0;whiteSpace=wrap;html=1;" vertex="1" parent="1">
          <mxGeometry x="75" y="770" width="415" height="130" as="geometry" />
        </mxCell>
      </root>
    </mxGraphModel>
  </diagram>
</mxfile>
